<svg id="Layer_1" data-name="Layer 1" xmlns="http://www.w3.org/2000/svg" viewBox="0 0 600 600"><title>branding consultancy</title><path d="M6,596.91c.66-3.11,1.29-6.23,2-9.33,2.94-12.8,10.4-22.5,20.79-30.17,10.69-7.9,22.6-13.53,34.67-18.88,10-4.4,20.06-8.51,29.73-13.46A62,62,0,0,0,107.4,514.7c6.06-5.77,6-10.15,1.07-16.9-11.33-15.4-19-32.6-24.14-50.88a125.13,125.13,0,0,1-4.53-45.67c1.62-17.87,7-34.3,20.52-46.95A51.88,51.88,0,0,1,136.18,340c9.54-.13,19,.24,28.1,3.37,18.87,6.47,30.06,20.07,35.58,38.75,3.9,13.21,4.34,26.73,3.16,40.38a145.32,145.32,0,0,1-19.4,61.77c-3.49,5.94-7.25,11.73-11.09,17.45-2.19,3.26-1.77,6.12.23,9.16a35.36,35.36,0,0,0,14.3,12.48c12.22,5.91,24.75,11.19,36.9,17.23,10,5,19.91,10.22,29.38,16.11,14.46,9,22,22.49,23.37,39.44.09,1.08.24,2.16.41,3.64-1.17.09-2.21.24-3.24.24H8.43c-.8,0-1.6-.06-2.39-.09Z"/><path d="M465,0c5.33,1.24,10.83,2,16,3.8C502.77,11.52,514.82,27.72,519,50c2.79,14.87,1.71,29.89-.63,44.75-3.18,20.26-10,39.23-21.5,56.35-1.9,2.81-4,5.49-5.9,8.31-3.87,5.75-3.55,9.58,1,14.86,5.92,6.84,13.71,11,21.71,14.63,12.17,5.55,24.56,10.6,36.74,16.12a111.38,111.38,0,0,1,23.7,14.53,50.15,50.15,0,0,1,19.34,35.56c.12,1.29.35,2.57.5,3.86a3,3,0,0,1-.2.78H323.24a71,71,0,0,1,4.61-19.59c4.63-11.81,13.34-20,23.76-26.56,11-7,23.15-11.69,35-17q14.07-6.3,27.83-13.27a30.49,30.49,0,0,0,13.28-12.22c3.06-5.48,3.12-6.33-.8-11.21A120.61,120.61,0,0,1,410.74,133a165.6,165.6,0,0,1-13.81-54.57c-1.17-15.22.52-30,6.62-44,8.84-20.31,24.72-31.23,46.49-34,.78-.1,1.55-.31,2.33-.47Z"/><path d="M348.17,88.71V97c0,5.39-.07,10.79,0,16.19,0,1.92-.56,2.81-2.54,2.66-1.09-.08-2.2,0-3.3,0H83.11V243.23l30.7-30.48,17.38,18.05-61,61L8.86,230.46l17.93-17.32L55,241.34l.87-.35V94.21c0-.9.07-1.8,0-2.7-.17-2,.57-3,2.72-2.81a21.34,21.34,0,0,0,2.4,0H348.17Z"/><path d="M495.28,500.14V372.35c-10.64,10.65-20.82,20.82-30.82,30.81l-18.24-18.29,61-62.86,62.18,61.73L550,403.15,521.48,374.7l-.71.24V522.65c0,4.28,0,4.29-4.18,4.29H230.26v-26.8Z"/></svg>