<svg id="Layer_1" data-name="Layer 1" xmlns="http://www.w3.org/2000/svg" viewBox="0 0 600 600"><title>graphic design</title><path d="M522.54,505.74c22.71.13,41.38-20.59,41.4-41.47q.18-135.31,0-270.62c0-2.24-.37-4.47-.6-7.1-11.14,15.58-21.88,30.14-32,45.11-2.73,4-5.07,9.27-5.1,14-.36,50.61-.22,101.23-.23,151.85,0,12.34-1.83,14.17-14.13,14.17H52.08c-1.41,0-2.83-.05-4.24,0-5.64.23-9.26-2.4-9.81-8-.47-4.83,0-9.75,0-14.63q0-133.19-.09-266.38c0-7.28,1.91-10.77,10-10.82,44-.3,88-1.37,132-1.5,87.09-.26,174.19-.07,261.29-.11,2.77,0,6.86.67,8.11-.83C458.45,98.41,467,87,477.07,74H467.2Q253.84,74,40.48,74a40.86,40.86,0,0,0-40.43,41q-.11,175.6,0,351.21c0,21.13,18.5,39.34,39.51,39.35q81.44,0,162.88,0h18.66c4.32,0,6,.3,5,6.24-4,24.12-24.34,36.42-45.25,38.82-10.53,1.21-13.16,4.28-12.88,18,.21,10,3.56,13.29,13.86,13.29H376.14c18.2,0,18.2,0,18.18-18,0-11.73-1.08-12.81-13-13.22-15.74-.55-36-14.93-41.25-29.69-1.69-4.74-2.5-9.78-3.92-15.48h10.76C405.47,505.63,464,505.4,522.54,505.74ZM281.12,479.53c-10.57,0-19.13-8.95-19.15-20,0-12.31,8-20.08,20.66-20.12A19.32,19.32,0,0,1,302,458.9,21.29,21.29,0,0,1,281.12,479.53Z"/><path d="M460.57,259.11c15.38-8.69,29.64-19.38,44.35-29.26l-.48-2.94c-30-7.86-53.88-24.65-72.27-50.32-8.93,16.83-15,32.7-14.77,50.47.15,11.57,0,11.56-11.19,12.24-14.25.86-27,5.8-37.59,15.32-17.4,15.7-21.5,36.57-18.61,58.33,2.35,17.63-3.5,30.32-16.63,40.75-6,4.77-6.17,9.46.64,13.32,16.64,9.42,34.17,9.8,52.41,5,24.75-6.52,43.34-21.51,57.93-41.64,12.55-17.3,17.63-37.1,10.46-57.64C451.84,264.21,453.67,263,460.57,259.11Z"/><path d="M579.71,18.12a13.12,13.12,0,0,0-7.05,2.14C560.56,28.61,547.35,35.89,537,46c-17.24,16.77-33.15,35-48.66,53.42-14.14,16.79-27.08,34.61-40.32,52.14-1.31,1.74-2.26,5.59-1.28,6.94,17.26,23.88,40.55,39.41,68.57,47.87,2,.59,5.93-1.27,7.14-3.16,13.37-20.94,26.8-41.87,39.34-63.32,7.53-12.88,13.79-26.53,20.14-40.06,8.85-18.88,18.84-37.5,17.85-60.67C601.65,15.39,593.13,18.1,579.71,18.12Z"/><path d="M214.4,243.59q-36,.36-72,0c-7.15-.06-10.21,2.78-10.12,10,.21,18.35.07,36.7.07,55q0,26.68,0,53.36c0,10,2.31,12.79,11.92,12.88q34.29.32,68.59,0c9.28-.09,11.72-2.93,11.73-12.21,0-36.14-.09-72.27.1-108.4C224.77,246.82,222.13,243.51,214.4,243.59Z"/><path d="M346,243.58H244.37c0,5.24,0,8.9,0,12.55,0,1.37.22,2.73.43,5.16h75.36C334.27,261.29,340.39,257,346,243.58Z"/><path d="M327.12,318.72H244.67c-.13,2.91-.28,4.86-.3,6.81-.14,12.1-.12,12.31,12,12.07,18.78-.39,37.56-1,56.34-1.68C322.18,335.59,327.6,329.12,327.12,318.72Z"/><path d="M244.82,281.54v16.59h81c.55-5.66,1-10.85,1.61-16.59Z"/><path d="M254.51,375.11c7.27-.67,14.65-.14,22-.14h30.66C306,367.86,305,362,304,356H244.36a74.09,74.09,0,0,1-.05,8.4C243.33,372.23,246,375.9,254.51,375.11Z"/><path d="M356.29,224.18c13.54.09,25.84-2.5,34.88-7,9.45-23.52,18-44.79,26.86-66.85H205.61c-2.54,0-5.09,0-7.63-.1-19.41-.52-38.82-1.42-58.22-1.18-3,0-8.52,5.22-8.56,8.09-.29,18.12.75,36.26,1.13,54.4.24,11.68.78,12.39,12.74,12.4C215.48,224,285.89,223.7,356.29,224.18Z"/></svg>