<svg id="Layer_1" data-name="Layer 1" xmlns="http://www.w3.org/2000/svg" viewBox="0 0 600 600"><title>web development</title><path d="M530.18,0c1.21.12,2.41.33,3.62.33,13.78,0,27.57.35,41.33-.1,8.53-.28,14.31,3.85,19.3,9.78a21.48,21.48,0,0,1,5.12,14.5q0,160,.45,320V349H575.48V99.63H124.36V475.49H324.27v23.78h-2.85q-141.17-.09-282.33-.21c-5.61,0-11.22-.29-16.83-.49A22.32,22.32,0,0,1,.53,476.87Q0,461.27,0,445.64.09,233,.4,20.31c0-2.68,1.65-5.61,3.18-8C8.31,4.93,14.79.57,24,.61,46.6.7,69.15.48,91.71.37c1.21,0,2.41-.22,3.62-.34ZM24.52,99.55V475.36H100V99.55ZM400,74.83a25.07,25.07,0,1,0-25.11-25.15A25.21,25.21,0,0,0,400,74.83Zm75.08,0a25.08,25.08,0,1,0-25.1-25.1A25,25,0,0,0,475,74.84ZM575,49.65a25,25,0,1,0-24.9,25.19A24.91,24.91,0,0,0,575,49.65Z"/><path d="M450.12,350.47h48.76c.07,1.14.16,2.22.19,3.29.19,7.45.4,14.9.54,22.35,0,1.52.21,2.54,2,3.23,7.48,2.94,14.85,6.18,22.32,9.13a3.54,3.54,0,0,0,3-.85c5.5-5.33,10.88-10.78,16.3-16.18.71-.71,1.46-1.37,2-1.86l35.15,35.11c-5.19,5.19-10.4,10.77-16.05,15.88-2.87,2.59-3,4.65-1.48,8,2.92,6.49,5.15,13.28,7.85,19.88a3.46,3.46,0,0,0,2.63,1.57c7.66.12,15.31.07,23,.07h3.55v49c-6.77.2-13.57.45-20.37.6-7.7.19-7.57.2-10.52,7.39-2.54,6.22-5.41,12.29-8.34,18.87l20.06,19.4-34.88,34.86-18.87-19.71c-9.39,3.92-17.66,7.31-25.85,10.9-.74.33-1.32,1.91-1.33,2.91-.1,8.46-.06,16.93-.06,25.63H450.05V571.81c-8.49-3.47-16.55-6.82-24.68-10a3.58,3.58,0,0,0-3,.9c-6.05,5.91-12,11.94-17.84,17.82l-35.24-35.31c4.39-4.35,9-8.91,13.59-13.49,2-2,5.17-3.87,5.61-6.21s-2.05-5-3.1-7.65c-1.95-4.82-4-9.6-5.57-14.55-.9-2.89-2.34-3.66-5.19-3.6-8,.18-16.07.06-24.26.06V449.87c4,0,7.9,0,11.83,0,4.8-.07,9.6-.14,14.39-.37a3.33,3.33,0,0,0,2.52-1.38c3.42-7.95,6.67-16,10-24.06-6.38-6.34-12.88-12.81-19.09-19l34.75-34.76c5.4,5.4,11.32,11.13,17,17.11,1.77,1.87,3.1,1.8,5.21.85q10.17-4.56,20.52-8.71a2.64,2.64,0,0,0,1.91-2.91c.13-7.65.36-15.3.56-23C450,352.71,450.06,351.71,450.12,350.47ZM412.34,475c0,34.23,28.25,62.76,62.12,62.74,35.2,0,62.89-27.87,63.19-62.9.25-29.45-24.47-62.28-63.76-62.44C446,412.28,412.27,436.56,412.34,475Z"/><path d="M449.78,250.9V274h-199V250.9Z"/><path d="M299.77,300.23v24.12H150V300.23Z"/><path d="M325.74,324.37V300.21h124v24.16Z"/><path d="M329.76,223.94c0-7-.07-13.38.11-19.75,0-.65,1.46-1.5,2.39-1.83,12.16-4.41,24.35-8.73,36.53-13.09,1.12-.4,2.21-.9,4-1.64a40.58,40.58,0,0,0-4.2-2.18c-12-4.31-23.95-8.64-36-12.8-2.19-.75-3.06-1.77-3-4.09.05-4.49-.23-9-.29-13.46a34.49,34.49,0,0,1,.43-4c2.63,1,4.88,1.83,7.08,2.75,18.9,7.86,37.79,15.77,56.71,23.58,1.89.77,2.64,1.67,2.55,3.77-.18,4.38,0,8.77-.12,13.16a3.35,3.35,0,0,1-1.45,2.53C373.1,205.89,351.66,214.81,329.76,223.94Z"/><path d="M221.29,151.4c0,6.34.1,12.53-.11,18.72,0,.83-1.51,2-2.54,2.35-12.13,4.47-24.3,8.82-36.45,13.22-1.1.4-2.14.95-4,1.79,5.25,2,9.74,3.85,14.29,5.48,8.72,3.13,17.46,6.21,26.23,9.18,1.95.66,2.77,1.53,2.66,3.67-.26,4.89-.25,9.78-.38,14.68,0,.87-.25,1.75-.43,3-1.9-.71-3.49-1.25-5-1.9-19.14-8-38.27-16.13-57.44-24.11-1.89-.79-2.64-1.71-2.56-3.8.17-4.38,0-8.77.12-13.15a3.64,3.64,0,0,1,1.58-2.76q31.19-13.31,62.45-26.38A7.91,7.91,0,0,1,221.29,151.4Z"/><path d="M149.88,274V250.93h74.66V274Z"/><path d="M299.65,199H253.08V175.94h46.57Z"/><path d="M50.17,174.29V150.18H74.38v24.11Z"/><path d="M74.4,224.76H50.25V200.52H74.4Z"/><path d="M74.49,300.27v24.11H50.27V300.27Z"/><path d="M74.39,374.83H50.26V350.6H74.39Z"/><path d="M50.15,274V250.88H74.43V274Z"/><path d="M50.28,400.94H74.36v23.2H50.28Z"/></svg>